<svg width="52" height="52" viewBox="0 0 52 52" fill="none" xmlns="http://www.w3.org/2000/svg">
<path fill-rule="evenodd" clip-rule="evenodd" d="M40.3457 49.5894C38.378 48.8757 36.7002 47.952 35.3786 47.086C32.4802 48.2086 29.3132 48.8262 26 48.8262C12.1929 48.8262 1 38.1199 1 24.9131C1 11.7063 12.1929 1 26 1C39.807 1 51 11.7063 51 24.9131C51 29.867 49.4227 34.4746 46.7225 38.2938C46.5511 41.4516 48.285 44.3049 50.0845 46.8297C51.6607 49.0407 51.2652 50.8227 48.3264 50.9821C47.0091 51.0534 44.1598 50.9727 40.3457 49.5894ZM5.54545 24.9131C5.54545 14.1075 14.7033 5.34783 26 5.34783C37.2968 5.34783 46.4545 14.1075 46.4545 24.9131C46.4545 29.1529 45.0473 33.072 42.6545 36.2744C41.5959 37.6918 42.1405 40.3475 42.5036 41.872C42.8561 43.3518 43.6209 44.9242 44.3764 46.2442C43.6532 46.0775 42.8434 45.8453 41.9573 45.524C39.918 44.7842 38.2327 43.7444 37.0441 42.8718C36.3695 42.3766 35.4625 42.2831 34.6932 42.6292C32.0577 43.8147 29.113 44.4783 26 44.4783C14.7033 44.4783 5.54545 35.7188 5.54545 24.9131ZM14.6364 28.174C16.5192 28.174 18.0455 26.714 18.0455 24.9131C18.0455 23.1122 16.5192 21.6522 14.6364 21.6522C12.7536 21.6522 11.2273 23.1122 11.2273 24.9131C11.2273 26.714 12.7536 28.174 14.6364 28.174ZM29.4091 24.9131C29.4091 26.714 27.8827 28.174 26 28.174C24.1173 28.174 22.5909 26.714 22.5909 24.9131C22.5909 23.1122 24.1173 21.6522 26 21.6522C27.8827 21.6522 29.4091 23.1122 29.4091 24.9131ZM37.3636 28.174C39.2464 28.174 40.7727 26.714 40.7727 24.9131C40.7727 23.1122 39.2464 21.6522 37.3636 21.6522C35.4809 21.6522 33.9545 23.1122 33.9545 24.9131C33.9545 26.714 35.4809 28.174 37.3636 28.174Z" fill="#F1C751" stroke="#F1C751"/>
</svg>
