<svg width="52" height="52" viewBox="0 0 52 52" fill="none" xmlns="http://www.w3.org/2000/svg">
<path fill-rule="evenodd" clip-rule="evenodd" d="M1 11C1 5.47715 5.47715 1 11 1H41C46.5227 1 51 5.47715 51 11V41C51 46.5227 46.5227 51 41 51H11C5.47715 51 1 46.5227 1 41V11ZM11 6C8.23857 6 6 8.23857 6 11V41C6 43.7615 8.23857 46 11 46H26V28.5H23.5C22.1193 28.5 21 27.3807 21 26C21 24.6193 22.1193 23.5 23.5 23.5H26V19.75C26 14.9175 29.9175 11 34.75 11H36.25C37.6307 11 38.75 12.1193 38.75 13.5C38.75 14.8807 37.6307 16 36.25 16H34.75C32.679 16 31 17.6789 31 19.75V23.5H36.25C37.6307 23.5 38.75 24.6193 38.75 26C38.75 27.3807 37.6307 28.5 36.25 28.5H31V46H41C43.7615 46 46 43.7615 46 41V11C46 8.23857 43.7615 6 41 6H11Z" fill="#F1C751" stroke="#F1C751"/>
</svg>
