<svg width="30" height="30" viewBox="0 0 30 30" fill="none" xmlns="http://www.w3.org/2000/svg">
<path d="M15 0C6.71537 0 0 6.71631 0 15C0 23.2837 6.71537 30 15 30C23.2837 30 30 23.2837 30 15C30 6.71631 23.2837 0 15 0ZM16.105 21.2146C15.7553 21.3703 15.0513 21.6412 15.0513 21.6412C15.0348 21.6486 15.0174 21.6523 15 21.6523C14.9826 21.6523 14.9652 21.6486 14.9487 21.6412C14.9487 21.6412 14.2447 21.3703 13.895 21.2146C8.36977 18.7702 7.4451 15.0257 7.4451 13.0628C7.4451 10.9772 9.13605 9.28529 11.2226 9.28529C13.3091 9.28529 15 10.9772 15 13.0628C15 10.9772 16.691 9.28529 18.7765 9.28529C20.863 9.28529 22.554 10.9772 22.554 13.0628C22.554 15.0257 21.6302 18.7702 16.105 21.2146Z" fill="#78C2AD"/>
</svg>
