<svg width="52" height="52" viewBox="0 0 52 52" fill="none" xmlns="http://www.w3.org/2000/svg">
<path fill-rule="evenodd" clip-rule="evenodd" d="M1 11C1 5.47715 5.47715 1 11 1H41C46.5228 1 51 5.47715 51 11V41C51 46.5228 46.5228 51 41 51H11C5.47715 51 1 46.5228 1 41V11ZM11 6C8.23857 6 6 8.23857 6 11V41C6 43.7615 8.23857 46 11 46H41C43.7615 46 46 43.7615 46 41V11C46 8.23857 43.7615 6 41 6H11ZM26 18.5C21.8577 18.5 18.5 21.8577 18.5 26C18.5 30.1423 21.8577 33.5 26 33.5C30.1423 33.5 33.5 30.1423 33.5 26C33.5 21.8577 30.1423 18.5 26 18.5ZM13.5 26C13.5 19.0964 19.0964 13.5 26 13.5C32.9035 13.5 38.5 19.0964 38.5 26C38.5 32.9035 32.9035 38.5 26 38.5C19.0964 38.5 13.5 32.9035 13.5 26ZM39.75 16C41.821 16 43.5 14.3211 43.5 12.25C43.5 10.1789 41.821 8.5 39.75 8.5C37.679 8.5 36 10.1789 36 12.25C36 14.3211 37.679 16 39.75 16Z" fill="#F1C751" stroke="#F1C751"/>
</svg>
