<svg width="52" height="52" viewBox="0 0 52 52" fill="none" xmlns="http://www.w3.org/2000/svg">
<path fill-rule="evenodd" clip-rule="evenodd" d="M11 1C5.47715 1 1 5.47715 1 11V41C1 46.5227 5.47715 51 11 51H41C46.5227 51 51 46.5227 51 41V11C51 5.47715 46.5227 1 41 1H11ZM6 11C6 8.23857 8.23857 6 11 6H41C43.7615 6 46 8.23857 46 11V41C46 43.7615 43.7615 46 41 46H11C8.23857 46 6 43.7615 6 41V11ZM18.5 23.5C18.5 22.1193 17.3807 21 16 21C14.6193 21 13.5 22.1193 13.5 23.5V38.5C13.5 39.8807 14.6193 41 16 41C17.3807 41 18.5 39.8807 18.5 38.5V23.5ZM19.75 14.75C19.75 16.8211 18.0711 18.5 16 18.5C13.9289 18.5 12.25 16.8211 12.25 14.75C12.25 12.6789 13.9289 11 16 11C18.0711 11 19.75 12.6789 19.75 14.75ZM26 21C26.8487 21 27.5988 21.423 28.0508 22.0698C29.3323 21.3755 30.759 21 32.25 21C37.6485 21 41 25.8145 41 29.9285V29.9475V29.9663V29.9853V30.0042V30.0232V30.0425V30.0615V30.0808V30.1V30.1193V30.1388V30.158V30.1775V30.197V30.2165V30.236V30.2555V30.2752V30.295V30.3145V30.3345V30.3542V30.374V30.394V30.4137V30.4338V30.4538V30.474V30.494V30.5143V30.5342V30.5545V30.5747V30.595V30.6155V30.6357V30.6562V30.6765V30.697V30.7175V30.7383V30.7587V30.7793V30.8V30.8207V30.8412V30.862V30.883V30.9038V30.9245V30.9455V30.9665V30.9872V31.0082V31.0292V31.0502V31.0715V31.0925V31.1138V31.1348V31.156V31.1772V31.1985V31.2197V31.241V31.2623V31.2837V31.305V31.3265V31.348V31.3695V31.3907V31.4125V31.434V31.4555V31.477V31.4988V31.5203V31.542V31.5635V31.5853V31.607V31.6287V31.6505V31.6722V31.694V31.716V31.7378V31.7598V31.7815V31.8035V31.8253V31.8472V31.8693V31.8912V31.9132V31.9352V31.9573V31.9792V32.0013V32.0233V32.0455V32.0675V32.0897V32.1118V32.134V32.156V32.1782V32.2005V32.2228V32.2448V32.267V32.2893V32.3115V32.3337V32.356V32.3783V32.4005V32.423V32.4453V32.4675V32.4897V32.5123V32.5345V32.5567V32.5792V32.6015V32.624V32.6462V32.6685V32.691V32.7135V32.7357V32.7583V32.7805V32.803V32.8255V32.8478V32.8703V32.8925V32.915V32.9375V32.9598V32.9823V33.0047V33.027V33.0495V33.072V33.0945V33.1167V33.1392V33.1618V33.184V33.2065V33.229V33.2513V33.2738V33.296V33.3185V33.3408V33.3633V33.3857V33.408V33.4305V33.4528V33.475V33.4975V33.5198V33.5423V33.5645V33.5868V33.609V33.6315V33.6537V33.676V33.6982V33.7205V33.7428V33.765V33.7873V33.8095V33.8317V33.854V33.876V33.8983V33.9205V33.9425V33.9647V33.9868V34.009V34.031V34.0532V34.0752V34.0973V34.1192V34.1413V34.1632V34.1852V34.2072V34.2293V34.2513V34.273V34.295V34.3167V34.3387V34.3605V34.3822V34.404V34.4258V34.4475V34.4692V34.491V34.5127V34.5345V34.556V34.5778V34.5993V34.6208V34.6425V34.664V34.6855V34.7067V34.7282V34.7497V34.7713V34.7925V34.8138V34.8353V34.8565V34.8778V34.899V34.9202V34.9412V34.9625V34.9835V35.0047V35.0257V35.0467V35.0677V35.0887V35.1097V35.1305V35.1515V35.1722V35.193V35.2137V35.2345V35.2552V35.276V35.2965V35.3172V35.3377V35.3582V35.3787V35.3993V35.4198V35.44V35.4605V35.4808V35.501V35.5213V35.5415V35.5615V35.5817V35.6017V35.6217V35.6418V35.6618V35.6817V35.7015V35.7213V35.7412V35.761V35.7805V35.8003V35.82V35.8395V35.859V35.8785V35.898V35.9173V35.9367V35.956V35.9753V35.9945V36.0138V36.0327V36.052V36.071V36.09V36.1088V36.1278V36.1465V36.1652V36.184V36.2028V36.2215V36.24V36.2585V36.277V36.2955V36.3138V36.3323V36.3505V36.3687V36.3867V36.405V36.423V36.441V36.459V36.477V36.4948V36.5125V36.5302V36.548V36.5655V36.583V36.6005V36.618V36.6355V36.6528V36.67V36.6873V36.7045V36.7215V36.7385V36.7555V36.7725V36.7893V36.806V36.8228V36.8395V36.8563V36.8727V36.8892V36.9055V36.922V36.9382V36.9545V36.9705V36.9867V37.0028V37.0187V37.0345V37.0505V37.0662V37.082V37.0975V37.113V37.1285V37.144V37.1595V37.1748V37.19V37.205V37.2202V37.2353V37.25V37.265V37.2798V37.2945V37.3092V37.3237V37.3382V37.3527V37.367V37.3812V37.3955V37.4098V37.4238V37.4378V37.4518V37.4655V37.4792V37.493V37.5065V37.5203V37.5335V37.547V37.5602V37.5735V37.5868V37.5998V37.6127V37.6257V37.6385V37.6512V37.664V37.6765V37.689V37.7015V37.7137V37.726V37.7382V37.7503V37.7623V37.7743V37.786V37.7978V37.8095V37.821V37.8325V37.844V37.8552V37.8665V37.8778V37.8888V37.8997V37.9107V37.9215V37.9323V37.9427V37.9532V37.9637V37.9743V37.9845V37.9945V38.0048V38.0148V38.0245V38.0345V38.0443V38.0538V38.0633V38.0728V38.082V38.0913V38.1005V38.1095V38.1185V38.1275V38.1362V38.145V38.1535V38.162V38.1705V38.1787V38.187V38.195V38.203V38.211V38.2188V38.2265V38.234V38.2415V38.249V38.2562V38.2635V38.2708V38.2778V38.2845V38.2913V38.298V38.3047V38.3112V38.3175V38.3238V38.33V38.336V38.342V38.348V38.3537V38.3595V38.365V38.3702V38.3758V38.381V38.386V38.391V38.396V38.4007V38.4055V38.41V38.4145V38.419V38.4232V38.4272V38.4313V38.4352V38.439V38.4427V38.4463V38.4498V38.4533V38.4565V38.4595V38.4625V38.4655V38.4683V38.471V38.4735V38.4783V38.4825V38.4865V38.4897V38.4928V38.496V38.499C41 39.8798 39.8807 41 38.5 41C37.1193 41 36 39.8807 36 38.5V38.497V38.494V38.4912V38.4883V38.4845V38.4805V38.476V38.471V38.4683V38.4655V38.4625V38.4595V38.4565V38.4533V38.4498V38.4463V38.4427V38.439V38.4352V38.4313V38.4272V38.4232V38.419V38.4145V38.41V38.4055V38.4007V38.396V38.391V38.386V38.381V38.3758V38.3702V38.365V38.3595V38.3537V38.348V38.342V38.336V38.33V38.3238V38.3175V38.3112V38.3047V38.298V38.2913V38.2845V38.2778V38.2708V38.2635V38.2562V38.249V38.2415V38.234V38.2265V38.2188V38.211V38.203V38.195V38.187V38.1787V38.1705V38.162V38.1535V38.145V38.1362V38.1275V38.1185V38.1095V38.1005V38.0913V38.082V38.0728V38.0633V38.0538V38.0443V38.0345V38.0245V38.0148V38.0048V37.9945V37.9845V37.9743V37.9637V37.9532V37.9427V37.9323V37.9215V37.9107V37.8997V37.8888V37.8778V37.8665V37.8552V37.844V37.8325V37.821V37.8095V37.7978V37.786V37.7743V37.7623V37.7503V37.7382V37.726V37.7137V37.7015V37.689V37.6765V37.664V37.6512V37.6385V37.6257V37.6127V37.5998V37.5868V37.5735V37.5602V37.547V37.5335V37.5203V37.5065V37.493V37.4792V37.4655V37.4518V37.4378V37.4238V37.4098V37.3955V37.3812V37.367V37.3527V37.3382V37.3237V37.3092V37.2945V37.2798V37.265V37.25V37.2353V37.2202V37.205V37.19V37.1748V37.1595V37.144V37.1285V37.113V37.0975V37.082V37.0662V37.0505V37.0345V37.0187V37.0028V36.9867V36.9705V36.9545V36.9382V36.922V36.9055V36.8892V36.8727V36.8563V36.8395V36.8228V36.806V36.7893V36.7725V36.7555V36.7385V36.7215V36.7045V36.6873V36.67V36.6528V36.6355V36.618V36.6005V36.583V36.5655V36.548V36.5302V36.5125V36.4948V36.477V36.459V36.441V36.423V36.405V36.3867V36.3687V36.3505V36.3323V36.3138V36.2955V36.277V36.2585V36.24V36.2215V36.2028V36.184V36.1652V36.1465V36.1278V36.1088V36.09V36.071V36.052V36.0327V36.0138V35.9945V35.9753V35.956V35.9367V35.9173V35.898V35.8785V35.859V35.8395V35.82V35.8003V35.7805V35.761V35.7412V35.7213V35.7015V35.6817V35.6618V35.6418V35.6217V35.6017V35.5817V35.5615V35.5415V35.5213V35.501V35.4808V35.4605V35.44V35.4198V35.3993V35.3787V35.3582V35.3377V35.3172V35.2965V35.276V35.2552V35.2345V35.2137V35.193V35.1722V35.1515V35.1305V35.1097V35.0887V35.0677V35.0467V35.0257V35.0047V34.9835V34.9625V34.9412V34.9202V34.899V34.8778V34.8565V34.8353V34.8138V34.7925V34.7713V34.7497V34.7282V34.7067V34.6855V34.664V34.6425V34.6208V34.5993V34.5778V34.556V34.5345V34.5127V34.491V34.4692V34.4475V34.4258V34.404V34.3822V34.3605V34.3387V34.3167V34.295V34.273V34.2513V34.2293V34.2072V34.1852V34.1632V34.1413V34.1192V34.0973V34.0752V34.0532V34.031V34.009V33.9868V33.9647V33.9425V33.9205V33.8983V33.876V33.854V33.8317V33.8095V33.7873V33.765V33.7428V33.7205V33.6982V33.676V33.6537V33.6315V33.609V33.5868V33.5645V33.5423V33.5198V33.4975V33.475V33.4528V33.4305V33.408V33.3857V33.3633V33.3408V33.3185V33.296V33.2738V33.2513V33.229V33.2065V33.184V33.1618V33.1392V33.1167V33.0945V33.072V33.0495V33.027V33.0047V32.9823V32.9598V32.9375V32.915V32.8925V32.8703V32.8478V32.8255V32.803V32.7805V32.7583V32.7357V32.7135V32.691V32.6685V32.6462V32.624V32.6015V32.5792V32.5567V32.5345V32.5123V32.4897V32.4675V32.4453V32.423V32.4005V32.3783V32.356V32.3337V32.3115V32.2893V32.267V32.2448V32.2228V32.2005V32.1782V32.156V32.134V32.1118V32.0897V32.0675V32.0455V32.0233V32.0013V31.9792V31.9573V31.9352V31.9132V31.8912V31.8693V31.8472V31.8253V31.8035V31.7815V31.7598V31.7378V31.716V31.694V31.6722V31.6505V31.6287V31.607V31.5853V31.5635V31.542V31.5203V31.4988V31.477V31.4555V31.434V31.4125V31.3907V31.3695V31.348V31.3265V31.305V31.2837V31.2623V31.241V31.2197V31.1985V31.1772V31.156V31.1348V31.1138V31.0925V31.0715V31.0502V31.0292V31.0082V30.9872V30.9665V30.9455V30.9245V30.9038V30.883V30.862V30.8412V30.8207V30.8V30.7793V30.7587V30.7383V30.7175V30.697V30.6765V30.6562V30.6357V30.6155V30.595V30.5747V30.5545V30.5342V30.5143V30.494V30.474V30.4538V30.4338V30.4137V30.394V30.374V30.3542V30.3345V30.3145V30.295V30.2752V30.2555V30.236V30.2165V30.197V30.1775V30.158V30.1388V30.1193V30.1V30.0808V30.0615V30.0425V30.0232V30.0042V29.9853V29.9663V29.9475V29.9285C36 28.008 34.3515 26 32.25 26C30.9397 26 29.4935 26.7123 28.5 28.4078V28.4145V28.4403V28.466V28.4918V28.5177V28.5435V28.5695V28.5955V28.6217V28.6478V28.6737V28.7V28.7262V28.7525V28.7787V28.805V28.8315V28.858V28.8843V28.9107V28.9373V28.9638V28.9905V29.017V29.0437V29.0705V29.097V29.124V29.1507V29.1775V29.2043V29.2312V29.2582V29.285V29.312V29.339V29.366V29.3932V29.4202V29.4475V29.4745V29.5017V29.529V29.5562V29.5835V29.6107V29.638V29.6655V29.6928V29.7202V29.7475V29.775V29.8025V29.83V29.8575V29.885V29.9125V29.9403V29.9678V29.9952V30.023V30.0508V30.0783V30.106V30.1337V30.1615V30.1893V30.217V30.2447V30.2725V30.3005V30.3283V30.356V30.384V30.4118V30.4398V30.4678V30.4955V30.5235V30.5515V30.5795V30.6073V30.6353V30.6632V30.6912V30.7195V30.7475V30.7755V30.8035V30.8315V30.8595V30.8878V30.9158V30.9438V30.972V31V31.0282V31.0562V31.0845V31.1125V31.1405V31.1688V31.197V31.225V31.2533V31.2812V31.3095V31.3375V31.3658V31.394V31.422V31.4503V31.4783V31.5065V31.5347V31.5627V31.591V31.619V31.6472V31.6752V31.7035V31.7315V31.7598V31.7878V31.816V31.844V31.8722V31.9002V31.9285V31.9565V31.9845V32.0125V32.0407V32.0687V32.0967V32.1247V32.1527V32.1807V32.2087V32.2368V32.2648V32.2928V32.3208V32.3488V32.3765V32.4045V32.4325V32.4602V32.4882V32.516V32.544V32.5718V32.5995V32.6273V32.655V32.683V32.7108V32.7383V32.766V32.7937V32.8215V32.849V32.8768V32.9042V32.932V32.9595V32.987V33.0145V33.042V33.0695V33.097V33.1245V33.1517V33.1793V33.2065V33.234V33.2612V33.2885V33.3158V33.343V33.3703V33.3973V33.4245V33.4515V33.4787V33.5058V33.5327V33.5597V33.5868V33.6138V33.6405V33.6675V33.6942V33.721V33.7477V33.7745V33.8013V33.828V33.8548V33.8812V33.9077V33.9342V33.9608V33.9872V34.0137V34.0402V34.0665V34.0928V34.119V34.1452V34.1715V34.1978V34.2238V34.2497V34.276V34.302V34.3278V34.3538V34.3797V34.4055V34.4313V34.457V34.4827V34.5083V34.534V34.5595V34.585V34.6105V34.636V34.6613V34.6867V34.712V34.7373V34.7622V34.7875V34.8125V34.8375V34.8625V34.8875V34.9125V34.9372V34.962V34.9867V35.0115V35.036V35.0607V35.0853V35.1097V35.134V35.1585V35.1828V35.207V35.2313V35.2552V35.2795V35.3035V35.3275V35.3512V35.3753V35.399V35.4228V35.4465V35.47V35.4935V35.517V35.5405V35.564V35.5872V35.6105V35.6335V35.6567V35.6797V35.7028V35.7257V35.7485V35.7715V35.7943V35.8167V35.8395V35.862V35.8845V35.9067V35.9292V35.9515V35.9738V35.9958V36.0177V36.0397V36.0618V36.0835V36.1053V36.127V36.1488V36.1702V36.1917V36.2132V36.2345V36.2558V36.277V36.2983V36.3193V36.3403V36.361V36.3818V36.4025V36.4232V36.444V36.4645V36.4847V36.5053V36.5255V36.5457V36.5658V36.5858V36.6058V36.6257V36.6455V36.6652V36.6847V36.7043V36.7237V36.7433V36.7625V36.7817V36.8007V36.82V36.839V36.8577V36.8765V36.8953V36.914V36.9325V36.9508V36.9692V36.9875V37.0057V37.0238V37.0418V37.0598V37.0775V37.0953V37.1128V37.1305V37.1478V37.1653V37.1825V37.1998V37.2168V37.2337V37.2505V37.2675V37.2843V37.3008V37.3172V37.3338V37.35V37.3662V37.3823V37.3982V37.4143V37.4302V37.4458V37.4615V37.477V37.4925V37.5078V37.523V37.5382V37.5532V37.568V37.583V37.5977V37.6122V37.6267V37.6413V37.6555V37.6698V37.6838V37.6978V37.7118V37.7255V37.739V37.7527V37.766V37.7795V37.7928V37.8057V37.8188V37.8317V37.8445V37.8573V37.8698V37.8822V37.8945V37.9067V37.919V37.931V37.943V37.9548V37.9663V37.978V37.9893V38.0008V38.012V38.023V38.034V38.0448V38.0555V38.0662V38.0768V38.087V38.0975V38.1075V38.1175V38.1275V38.1373V38.147V38.1565V38.166V38.1753V38.1845V38.1935V38.2025V38.2113V38.22V38.2285V38.237V38.2453V38.2535V38.2615V38.2695V38.2773V38.285V38.2925V38.3V38.3072V38.3145V38.3215V38.3282V38.3352V38.3418V38.3483V38.3548V38.361V38.367V38.373V38.379V38.3848V38.3903V38.3957V38.401V38.4062V38.4113V38.4162V38.421V38.4258V38.4302V38.4345V38.4388V38.4427V38.4468V38.4508V38.4543V38.4578V38.4613V38.4645V38.4678V38.4707V38.4735V38.4762V38.4788V38.4835V38.4875V38.491V38.494V38.4972V38.4998C28.5 39.8805 27.3807 41 26 41C24.6193 41 23.5 39.8807 23.5 38.5V38.4972V38.494V38.491V38.4875V38.4835V38.4788V38.4762V38.4735V38.4707V38.4678V38.4645V38.4613V38.4578V38.4543V38.4508V38.4468V38.4427V38.4388V38.4345V38.4302V38.4258V38.421V38.4162V38.4113V38.4062V38.401V38.3957V38.3903V38.3848V38.379V38.373V38.367V38.361V38.3548V38.3483V38.3418V38.3352V38.3282V38.3215V38.3145V38.3072V38.3V38.2925V38.285V38.2773V38.2695V38.2615V38.2535V38.2453V38.237V38.2285V38.22V38.2113V38.2025V38.1935V38.1845V38.1753V38.166V38.1565V38.147V38.1373V38.1275V38.1175V38.1075V38.0975V38.087V38.0768V38.0662V38.0555V38.0448V38.034V38.023V38.012V38.0008V37.9893V37.978V37.9663V37.9548V37.943V37.931V37.919V37.9067V37.8945V37.8822V37.8698V37.8573V37.8445V37.8317V37.8188V37.8057V37.7928V37.7795V37.766V37.7527V37.739V37.7255V37.7118V37.6978V37.6838V37.6698V37.6555V37.6413V37.6267V37.6122V37.5977V37.583V37.568V37.5532V37.5382V37.523V37.5078V37.4925V37.477V37.4615V37.4458V37.4302V37.4143V37.3982V37.3823V37.3662V37.35V37.3338V37.3172V37.3008V37.2843V37.2675V37.2505V37.2337V37.2168V37.1998V37.1825V37.1653V37.1478V37.1305V37.1128V37.0953V37.0775V37.0598V37.0418V37.0238V37.0057V36.9875V36.9692V36.9508V36.9325V36.914V36.8953V36.8765V36.8577V36.839V36.82V36.8007V36.7817V36.7625V36.7433V36.7237V36.7043V36.6847V36.6652V36.6455V36.6257V36.6058V36.5858V36.5658V36.5457V36.5255V36.5053V36.4847V36.4645V36.444V36.4232V36.4025V36.3818V36.361V36.3403V36.3193V36.2983V36.277V36.2558V36.2345V36.2132V36.1917V36.1702V36.1488V36.127V36.1053V36.0835V36.0618V36.0397V36.0177V35.9958V35.9738V35.9515V35.9292V35.9067V35.8845V35.862V35.8395V35.8167V35.7943V35.7715V35.7485V35.7257V35.7028V35.6797V35.6567V35.6335V35.6105V35.5872V35.564V35.5405V35.517V35.4935V35.47V35.4465V35.4228V35.399V35.3753V35.3512V35.3275V35.3035V35.2795V35.2552V35.2313V35.207V35.1828V35.1585V35.134V35.1097V35.0853V35.0607V35.036V35.0115V34.9867V34.962V34.9372V34.9125V34.8875V34.8625V34.8375V34.8125V34.7875V34.7622V34.7373V34.712V34.6867V34.6613V34.636V34.6105V34.585V34.5595V34.534V34.5083V34.4827V34.457V34.4313V34.4055V34.3797V34.3538V34.3278V34.302V34.276V34.2497V34.2238V34.1978V34.1715V34.1452V34.119V34.0928V34.0665V34.0402V34.0137V33.9872V33.9608V33.9342V33.9077V33.8812V33.8548V33.828V33.8013V33.7745V33.7477V33.721V33.6942V33.6675V33.6405V33.6138V33.5868V33.5597V33.5327V33.5058V33.4787V33.4515V33.4245V33.3973V33.3703V33.343V33.3158V33.2885V33.2612V33.234V33.2065V33.1793V33.1517V33.1245V33.097V33.0695V33.042V33.0145V32.987V32.9595V32.932V32.9042V32.8768V32.849V32.8215V32.7937V32.766V32.7383V32.7108V32.683V32.655V32.6273V32.5995V32.5718V32.544V32.516V32.4882V32.4602V32.4325V32.4045V32.3765V32.3488V32.3208V32.2928V32.2648V32.2368V32.2087V32.1807V32.1527V32.1247V32.0967V32.0687V32.0407V32.0125V31.9845V31.9565V31.9285V31.9002V31.8722V31.844V31.816V31.7878V31.7598V31.7315V31.7035V31.6752V31.6472V31.619V31.591V31.5627V31.5347V31.5065V31.4783V31.4503V31.422V31.394V31.3658V31.3375V31.3095V31.2812V31.2533V31.225V31.197V31.1688V31.1405V31.1125V31.0845V31.0562V31.0282V31V30.972V30.9438V30.9158V30.8878V30.8595V30.8315V30.8035V30.7755V30.7475V30.7195V30.6912V30.6632V30.6353V30.6073V30.5795V30.5515V30.5235V30.4955V30.4678V30.4398V30.4118V30.384V30.356V30.3283V30.3005V30.2725V30.2447V30.217V30.1893V30.1615V30.1337V30.106V30.0783V30.0508V30.023V29.9952V29.9678V29.9403V29.9125V29.885V29.8575V29.83V29.8025V29.775V29.7475V29.7202V29.6928V29.6655V29.638V29.6107V29.5835V29.5562V29.529V29.5017V29.4745V29.4475V29.4202V29.3932V29.366V29.339V29.312V29.285V29.2582V29.2312V29.2043V29.1775V29.1507V29.124V29.097V29.0705V29.0437V29.017V28.9905V28.9638V28.9373V28.9107V28.8843V28.858V28.8315V28.805V28.7787V28.7525V28.7262V28.7V28.6737V28.6478V28.6217V28.5955V28.5695V28.5435V28.5177V28.4918V28.466V28.4403V28.4145V28.3887V28.363V28.3372V28.3117V28.2863V28.2607V28.2353V28.21V28.1845V28.1593V28.134V28.1087V28.0837V28.0585V28.0335V28.0085V27.9835V27.9585V27.9338V27.909V27.8843V27.8595V27.8348V27.8102V27.7858V27.776V27.766V27.7563V27.7463V27.7365V27.7265V27.7165V27.7065V27.6965V27.6865V27.6765V27.6665V27.6565V27.6465V27.6362V27.6263V27.616V27.6057V27.5957V27.5855V27.5753V27.565V27.5547V27.5445V27.5343V27.524V27.5138V27.5033V27.493V27.4825V27.4722V27.4618V27.4512V27.441V27.4305V27.42V27.4095V27.399V27.3885V27.378V27.3675V27.3568V27.3462V27.3358V27.325V27.3145V27.3037V27.2932V27.2825V27.2718V27.2613V27.2505V27.2397V27.229V27.2183V27.2075V27.1967V27.186V27.1753V27.1642V27.1535V27.1427V27.132V27.121V27.1103V27.0993V27.0885V27.0775V27.0665V27.0558V27.0448V27.0337V27.023V27.012V27.001V26.99V26.979V26.968V26.957V26.946V26.935V26.924V26.913V26.9017V26.8908V26.8797V26.8687V26.8575V26.8465V26.8355V26.8243V26.8133V26.802V26.791V26.7798V26.7687V26.7575V26.7465V26.7352V26.724V26.713V26.7017V26.6905V26.6795V26.6682V26.657V26.6458V26.6347V26.6235V26.6122V26.601V26.5898V26.5785V26.5675V26.5562V26.545V26.5338V26.5225V26.5112V26.5V26.4888V26.4775V26.4662V26.455V26.4437V26.4325V26.4212V26.41V26.3988V26.3875V26.3763V26.365V26.3538V26.3425V26.3312V26.32V26.3088V26.2975V26.2863V26.275V26.2638V26.2522V26.241V26.2297V26.2185V26.2073V26.196V26.1847V26.1735V26.1623V26.151V26.14V26.1287V26.1175V26.1062V26.095V26.0837V26.0725V26.0612V26.05V26.0387V26.0278V26.0165V26.0052V25.994V25.983V25.9718V25.9605V25.9492V25.9382V25.927V25.9158V25.9047V25.8935V25.8825V25.8713V25.8603V25.849V25.838V25.8268V25.8158V25.8047V25.7935V25.7825V25.7715V25.7603V25.7493V25.7383V25.7272V25.7163V25.7052V25.6943V25.6832V25.6723V25.6613V25.6502V25.6392V25.6283V25.6175V25.6065V25.5955V25.5845V25.5737V25.5627V25.552V25.541V25.5303V25.5193V25.5085V25.4977V25.487V25.476V25.4653V25.4545V25.4438V25.433V25.4222V25.4115V25.4007V25.3902V25.3795V25.3688V25.3583V25.3475V25.3368V25.3263V25.3158V25.305V25.2945V25.284V25.2735V25.263V25.2523V25.2418V25.2315V25.221V25.2105V25.2V25.1898V25.1792V25.1687V25.1585V25.1483V25.1377V25.1275V25.1173V25.107V25.0967V25.0865V25.0763V25.066V25.0557V25.0458V25.0355V25.0252V25.0153V25.0053V24.995V24.985V24.975V24.965V24.955V24.945V24.935V24.925V24.9153V24.9053V24.8955V24.8855V24.8757V24.866V24.856V24.8462V24.8365V24.827V24.8173V24.8075V24.7978V24.7882V24.7785V24.769V24.7595V24.75V24.7405V24.731V24.7215V24.712V24.7025V24.6932V24.6838V24.6745V24.6652V24.6558V24.6465V24.6372V24.628V24.619V24.6098V24.6005V24.5915V24.5823V24.5732V24.5643V24.5553V24.5462V24.5373V24.5282V24.5195V24.5105V24.5017V24.4928V24.484V24.4752V24.4665V24.4577V24.4492V24.4405V24.432V24.4233V24.4147V24.4062V24.3978V24.3892V24.3807V24.3722V24.364V24.3555V24.3472V24.339V24.3307V24.3225V24.3142V24.306V24.298V24.2897V24.2817V24.2738V24.2658V24.2577V24.2498V24.2417V24.234V24.226V24.2183V24.2105V24.2028V24.195V24.1873V24.1798V24.172V24.1645V24.157V24.1495V24.142V24.1345V24.127V24.1198V24.1122V24.105V24.0978V24.0905V24.0833V24.0763V24.069V24.062V24.0548V24.0478V24.0408V24.034V24.027V24.0203V24.0133V24.0065V23.9997V23.993V23.9862V23.9798V23.973V23.9665V23.96V23.9535V23.947V23.9408V23.9342V23.928V23.9218V23.9155V23.9093V23.903V23.897V23.8907V23.8848V23.8787V23.8728V23.8667V23.861V23.855V23.8493V23.8435V23.8378V23.8323V23.8265V23.821V23.8152V23.8098V23.8043V23.799V23.7935V23.7882V23.783V23.7778V23.7725V23.7673V23.7623V23.757V23.752V23.747V23.7423V23.7373V23.7325V23.7275V23.7227V23.7183V23.7135V23.7087V23.7043V23.6997V23.6953V23.6908V23.6865V23.682V23.6777V23.6735V23.6693V23.6653V23.661V23.657V23.653V23.649V23.645V23.6413V23.6375V23.6338V23.63V23.6262V23.6225V23.619V23.6155V23.612V23.6085V23.6052V23.602V23.5985V23.5955V23.5922V23.589V23.586V23.583V23.58V23.577V23.5743V23.5715V23.5688V23.566V23.5632V23.5607V23.558V23.5555V23.5508V23.5463V23.5417V23.5375V23.5335V23.5298V23.5262V23.5228V23.5198V23.5167V23.513V23.5105V23.5075V23.505V23.502C23.5 22.1213 24.6193 21 26 21Z" fill="#F1C751" stroke="#F1C751"/>
</svg>
