<svg width="63" height="59" viewBox="0 0 63 59" fill="none" xmlns="http://www.w3.org/2000/svg">
<path d="M3 34.3879C3 45.7529 15.5573 54.9999 31 54.9999C34.6777 55.0018 38.3199 54.4699 41.7181 53.4347C45.1164 52.3995 48.204 50.8813 50.8046 48.9669C53.4051 47.0526 55.4675 44.7796 56.8737 42.278C58.28 39.7764 59.0025 37.0952 59 34.3879C58.9996 34.1615 58.8773 33.9444 58.6598 33.7843C58.4423 33.6242 58.1474 33.5341 57.8398 33.5338H4.16018C3.85259 33.5341 3.55771 33.6242 3.34021 33.7843C3.12271 33.9444 3.00036 34.1615 3 34.3879ZM56.6537 35.2419C56.5757 36.5237 56.321 37.7962 55.8934 39.04H6.10929C5.67932 37.7965 5.42365 36.5238 5.3463 35.2419H56.6537ZM6.36999 39.7434H55.6314C54.0614 43.6558 50.8141 47.0894 46.3747 49.5313C41.9353 51.9732 36.5418 53.2924 31 53.2918C19.3654 53.2918 9.51477 47.5666 6.36999 39.7434Z" fill="#F1C751" stroke="#F1C751" stroke-width="0.7"/>
<path d="M39.0721 49.5038C41.6904 48.6727 44.0179 47.4145 45.879 45.8243C45.9617 45.7536 46.0792 45.7099 46.2057 45.703C46.3321 45.696 46.4572 45.7263 46.5533 45.7872C46.6494 45.8481 46.7087 45.9346 46.7182 46.0276C46.7276 46.1207 46.6865 46.2128 46.6038 46.2835C44.6451 47.9548 42.1969 49.2771 39.4434 50.1509C39.3838 50.1695 39.3197 50.179 39.255 50.1791C39.1448 50.1793 39.0379 50.1514 38.9524 50.1002C38.8669 50.049 38.8081 49.9776 38.7859 49.8981C38.7638 49.8187 38.7796 49.736 38.8308 49.6641C38.8819 49.5923 38.9653 49.5356 39.0667 49.5038H39.0721Z" fill="#F1C751" stroke="#F1C751" stroke-width="0.7"/>
<path d="M54.6513 15.068C56.8966 13.3227 56.322 10.7475 56.2961 10.647C56.2611 10.4983 56.1732 10.3591 56.0413 10.2435C55.9094 10.1279 55.7383 10.0401 55.5454 9.98909C55.3524 9.93803 55.1446 9.92553 54.9429 9.95285C54.7413 9.98017 54.5531 10.0463 54.3975 10.1446L49.3036 13.3609L50.8473 7.72611C50.8885 7.57579 50.874 7.42009 50.8052 7.27534C50.7365 7.1306 50.616 7.00215 50.4566 6.90348C50.2971 6.80481 50.1045 6.73956 49.899 6.71458C49.6935 6.6896 49.4826 6.70581 49.2886 6.76152C49.1357 6.80472 45.5173 7.86678 44.5113 10.4079C44.05 11.5674 44.2083 12.8133 44.9781 14.1255C43.9841 14.0109 42.9676 14.0656 42.0067 14.2853C40.332 14.6872 39.0489 15.6156 38.1945 17.0414C37.9348 17.4879 37.7137 17.946 37.5325 18.4129C37.5325 18.423 37.5243 18.434 37.5202 18.4441C36.244 21.6534 35.5097 27.035 35.6489 29.8644C35.6691 30.3297 35.868 30.7812 36.2227 31.1666C36.5773 31.552 37.0732 31.8554 37.6526 32.0418C38.0824 32.1822 38.5473 32.2551 39.0175 32.2558C39.8127 32.2552 40.5816 32.0461 41.1864 31.666C42.9485 30.5668 45.3672 28.719 47.5005 26.843C49.1534 25.3881 50.5115 24.0297 51.4274 22.9144C51.7683 22.507 52.0738 22.0842 52.3419 21.6483C53.1977 20.2236 53.2646 18.9013 52.5412 17.7186C52.2353 17.2273 51.8139 16.7797 51.2964 16.3964C52.6736 16.1753 53.7955 15.7332 54.6513 15.068ZM46.9232 16.3742L46.9587 16.3873L46.9996 16.4024L47.0365 16.4154H47.0474L47.0733 16.4225L47.1197 16.4355L47.1443 16.4426C47.1907 16.4536 49.6011 17.0515 50.4324 18.427C50.8746 19.1575 50.8064 19.9854 50.2222 20.9581C50.0528 21.2332 49.8638 21.5015 49.6557 21.7619L47.7244 21.0033C47.6689 20.9799 47.6077 20.9649 47.5442 20.9593C47.4808 20.9537 47.4165 20.9575 47.355 20.9704C47.2936 20.9834 47.2364 21.0054 47.1867 21.0349C47.137 21.0645 47.0958 21.1011 47.0657 21.1426C47.0356 21.1841 47.017 21.2296 47.0112 21.2764C47.0054 21.3233 47.0124 21.3705 47.0318 21.4153C47.0512 21.4601 47.0827 21.5016 47.1243 21.5373C47.1659 21.573 47.2168 21.6022 47.2739 21.6232L49.1589 22.3637C48.1434 23.5052 47.0339 24.5997 45.8367 25.6413L42.1227 24.3823C42.0076 24.3433 41.8761 24.3395 41.7572 24.3718C41.6384 24.4042 41.5418 24.4699 41.4887 24.5547C41.4357 24.6394 41.4306 24.7362 41.4745 24.8237C41.5184 24.9112 41.6077 24.9823 41.7228 25.0214L45.1979 26.205C43.287 27.8498 41.2151 29.4143 39.6891 30.3658C39.5394 30.4596 39.3568 30.5204 39.1622 30.5413C38.9677 30.5622 38.7691 30.5422 38.5893 30.4838C38.4094 30.4254 38.2556 30.3308 38.1455 30.2109C38.0353 30.0911 37.9733 29.9508 37.9665 29.8061C37.8396 27.2349 38.4675 22.4582 39.5785 19.3725L43.2843 20.5973C43.3456 20.6179 43.4121 20.6285 43.4795 20.6285C43.5887 20.6285 43.6946 20.6009 43.7796 20.5504C43.8646 20.4999 43.9235 20.4294 43.9465 20.3508C43.9695 20.2722 43.9552 20.1902 43.9059 20.1184C43.8567 20.0466 43.7756 19.9894 43.676 19.9563L39.8433 18.6893C39.9763 18.3663 40.1335 18.0489 40.3142 17.7387C40.8984 16.7661 41.6791 16.1713 42.7137 15.9201C44.6656 15.4408 46.9 16.3582 46.9232 16.3692V16.3742ZM48.026 9.39002L46.975 13.2223C46.541 12.3762 46.4577 11.6005 46.7307 10.9022C46.9743 10.3216 47.421 9.79836 48.026 9.385V9.39002ZM53.8324 12.754C53.6681 13.1823 53.3677 13.5756 52.9561 13.9015C52.4101 14.3255 51.649 14.6072 50.6726 14.7465L53.8324 12.754Z" fill="#F1C751" stroke="#F1C751" stroke-width="0.7"/>
<path d="M24.0089 19.2328C22.2945 16.118 18.4045 14.0673 14.4394 14.0673H14.3288C14.3166 14.0432 14.3029 14.018 14.2893 13.9939C13.5099 12.5902 11.1568 11.9633 9.03432 12.5963C8.0573 12.8799 7.2506 13.4117 6.76036 14.0954C6.51525 14.4298 6.3727 14.7997 6.34275 15.179C6.31281 15.5583 6.39618 15.9378 6.58701 16.2909C6.7459 16.5809 6.9774 16.8464 7.26947 17.0736C5.56469 19.1344 5.32036 21.9136 6.68529 24.4014C8.40099 27.5163 12.2378 29.563 16.2234 29.568C16.843 30.3186 18.0073 30.7537 19.2658 30.7537C19.7994 30.753 20.3278 30.6762 20.8218 30.5276C22.7709 29.9468 23.7768 28.4175 23.0643 27.1274C23.0439 27.0922 23.0234 27.0571 23.0016 27.0219C25.0926 24.9249 25.5021 21.9447 24.0089 19.2328ZM20.6989 26.3989C20.4996 26.5601 20.3918 26.7714 20.3976 26.9893C20.4035 27.2073 20.5225 27.4152 20.7303 27.5705C20.8079 27.628 20.8691 27.6963 20.9105 27.7715C21.1384 28.1844 20.6976 28.723 19.9551 28.9471C19.2125 29.1711 18.3786 29.0104 18.1506 28.5964C18.1353 28.5652 18.123 28.5333 18.1138 28.5009C18.0518 28.2972 17.8904 28.1172 17.6602 27.9952C17.43 27.8732 17.1471 27.8175 16.8649 27.8388C13.5891 28.0829 10.2955 26.406 8.8405 23.7624C7.61207 21.5358 7.98333 19.048 9.78093 17.4252C9.89262 17.3245 9.97158 17.2062 10.0118 17.0796C10.0519 16.9529 10.0523 16.8212 10.0128 16.6944C9.97331 16.5676 9.895 16.4492 9.78385 16.3481C9.6727 16.247 9.53164 16.1659 9.37145 16.111C9.09023 16.022 8.86568 15.8574 8.74359 15.6508C8.68255 15.5252 8.65865 15.3915 8.67348 15.2586C8.68831 15.1257 8.74153 14.9967 8.82958 14.8801C9.06439 14.5575 9.44908 14.3079 9.91332 14.1768C10.8333 13.9015 11.8542 14.1105 12.1422 14.632C12.1969 14.7349 12.2225 14.845 12.2173 14.9555C12.2128 15.0802 12.2455 15.2041 12.3131 15.3185C12.3807 15.4329 12.4816 15.535 12.6086 15.6176C12.7356 15.7002 12.8857 15.7612 13.0483 15.7965C13.2108 15.8318 13.3819 15.8403 13.5495 15.8216C13.8512 15.7879 14.156 15.7711 14.4612 15.7714C17.4941 15.7714 20.5065 17.4031 21.8659 19.8709C23.149 22.218 22.6931 24.7792 20.6989 26.3989Z" fill="#F1C751" stroke="#F1C751" stroke-width="0.7"/>
<path d="M19.2426 25.2836C19.1773 25.3076 19.1053 25.32 19.0324 25.3198C18.9247 25.3194 18.8203 25.2923 18.7362 25.2428C18.6521 25.1933 18.5932 25.1243 18.569 25.0471C18.5449 24.9699 18.5568 24.8889 18.603 24.8173C18.6492 24.7457 18.7269 24.6876 18.8235 24.6526C19.4694 24.4179 19.9625 24.0042 20.1946 23.5022C20.4267 23.0002 20.3788 22.4509 20.0615 21.9749C20.0082 21.8913 20.0017 21.7956 20.0434 21.7085C20.0851 21.6214 20.1716 21.5499 20.2844 21.5094C20.3971 21.4688 20.527 21.4626 20.6459 21.492C20.7649 21.5214 20.8633 21.584 20.9201 21.6664C21.132 21.9855 21.2564 22.3322 21.2862 22.6868C21.316 23.0413 21.2507 23.3966 21.0939 23.7325C20.9371 24.0684 20.6919 24.3783 20.3724 24.6445C20.0529 24.9106 19.6652 25.1278 19.2316 25.2836H19.2426Z" fill="#F1C751" stroke="#F1C751" stroke-width="0.7"/>
<path d="M29.9067 30.5989C29.9064 30.9199 30.0355 31.2338 30.2776 31.5008C30.5197 31.7678 30.864 31.976 31.2668 32.0989C31.6697 32.2219 32.113 32.2541 32.5408 32.1915C32.9685 32.1289 33.3614 31.9744 33.6697 31.7474C33.9781 31.5204 34.1881 31.2311 34.2731 30.9162C34.3581 30.6014 34.3143 30.275 34.1473 29.9785C33.9803 29.6819 33.6976 29.4285 33.3349 29.2503C32.9721 29.072 32.5458 28.977 32.1097 28.9772C31.5257 28.978 30.966 29.1491 30.5531 29.4531C30.1402 29.757 29.9078 30.1691 29.9067 30.5989ZM30.8621 30.5989C30.8621 30.417 30.9354 30.2392 31.0727 30.088C31.21 29.9368 31.4051 29.819 31.6334 29.7494C31.8617 29.6799 32.1129 29.6617 32.3552 29.6973C32.5975 29.7328 32.82 29.8205 32.9946 29.9492C33.1692 30.0779 33.2881 30.2418 33.3361 30.4202C33.3841 30.5986 33.3592 30.7835 33.2645 30.9514C33.1697 31.1194 33.0095 31.2629 32.8039 31.3638C32.5983 31.4647 32.3567 31.5185 32.1097 31.5183C31.7787 31.518 31.4614 31.421 31.2275 31.2487C30.9935 31.0763 30.8621 30.8426 30.8621 30.5989Z" fill="#F1C751" stroke="#F1C751" stroke-width="0.7"/>
<path d="M21.0006 9.92758C21.0006 9.55287 20.8497 9.18657 20.5669 8.87498C20.2842 8.56339 19.8823 8.3205 19.4121 8.17701C18.9419 8.03352 18.4244 7.99588 17.9251 8.06883C17.4259 8.14179 16.9672 8.32207 16.607 8.58689C16.2469 8.85172 16.0015 9.18919 15.9019 9.55665C15.8023 9.92412 15.8528 10.3051 16.0473 10.6514C16.2417 10.9977 16.5712 11.2938 16.9942 11.5023C17.4172 11.7107 17.9146 11.8222 18.4236 11.8226C19.1066 11.8226 19.7616 11.623 20.2448 11.2677C20.728 10.9124 20.9999 10.4304 21.0006 9.92758ZM20.0451 9.92758C20.0454 10.1632 19.9508 10.3936 19.7732 10.5897C19.5956 10.7858 19.343 10.9387 19.0474 11.0291C18.7518 11.1195 18.4264 11.1433 18.1124 11.0976C17.7983 11.0519 17.5098 10.9387 17.2831 10.7723C17.0565 10.6059 16.902 10.3937 16.8391 10.1627C16.7762 9.93161 16.8078 9.69202 16.9299 9.47418C17.0519 9.25634 17.259 9.07002 17.5249 8.9388C17.7907 8.80757 18.1035 8.73731 18.4236 8.73692C18.8531 8.73665 19.2651 8.86191 19.5692 9.08518C19.8732 9.30844 20.0444 9.61144 20.0451 9.92758Z" fill="#F1C751" stroke="#F1C751" stroke-width="0.7"/>
<path d="M58.1851 25.6082C58.1854 25.2038 58.0227 24.8084 57.7176 24.4722C57.4125 24.1359 56.9788 23.8738 56.4713 23.719C55.9638 23.5643 55.4053 23.5238 54.8666 23.6028C54.3278 23.6818 53.833 23.8767 53.4448 24.1627C53.0566 24.4488 52.7923 24.8133 52.6856 25.2099C52.5788 25.6066 52.6343 26.0177 52.845 26.3911C53.0557 26.7646 53.4122 27.0836 53.8693 27.3079C54.3264 27.5321 54.8637 27.6515 55.413 27.6509C56.1481 27.6496 56.8526 27.4339 57.3722 27.051C57.8917 26.6681 58.184 26.1493 58.1851 25.6082ZM57.2297 25.6082C57.2297 25.8734 57.1228 26.1327 56.9225 26.3532C56.7223 26.5736 56.4377 26.7454 56.1047 26.8468C55.7718 26.9482 55.4055 26.9745 55.0522 26.9226C54.6988 26.8706 54.3744 26.7426 54.1199 26.5549C53.8654 26.3671 53.6924 26.128 53.6226 25.8678C53.5528 25.6076 53.5894 25.338 53.7279 25.0931C53.8663 24.8483 54.1003 24.6391 54.4003 24.4922C54.7002 24.3453 55.0527 24.2672 55.413 24.2678C55.8951 24.2689 56.3569 24.4105 56.6974 24.6617C57.0379 24.913 57.2293 25.2533 57.2297 25.6082Z" fill="#F1C751" stroke="#F1C751" stroke-width="0.7"/>
<path d="M6.47509 29.9006C6.47482 30.1258 6.56529 30.346 6.73505 30.5333C6.90481 30.7207 7.14624 30.8667 7.4288 30.9531C7.71135 31.0394 8.02233 31.0621 8.32241 31.0183C8.62248 30.9744 8.89816 30.8661 9.11457 30.7069C9.33098 30.5478 9.47841 30.3449 9.53819 30.1241C9.59797 29.9032 9.56742 29.6743 9.45042 29.4662C9.33341 29.2581 9.1352 29.0802 8.88085 28.9551C8.62651 28.83 8.32746 28.7632 8.02155 28.7632C7.61175 28.7634 7.21882 28.8833 6.92892 29.0966C6.63902 29.3098 6.47581 29.5989 6.47509 29.9006ZM7.43054 29.9006C7.43054 29.8145 7.4652 29.7304 7.53014 29.6589C7.59508 29.5873 7.68738 29.5316 7.79538 29.4986C7.90337 29.4657 8.0222 29.4571 8.13685 29.4739C8.25149 29.4907 8.3568 29.5321 8.43945 29.5929C8.52211 29.6538 8.5784 29.7313 8.6012 29.8157C8.62401 29.9001 8.6123 29.9876 8.56757 30.0671C8.52284 30.1466 8.44709 30.2145 8.34989 30.2623C8.2527 30.3101 8.13844 30.3357 8.02155 30.3357C7.8648 30.3357 7.71448 30.2898 7.60364 30.2082C7.4928 30.1266 7.43054 30.016 7.43054 29.9006Z" fill="#F1C751" stroke="#F1C751" stroke-width="0.7"/>
<path d="M41.6791 7.29506C41.6791 7.06986 41.5884 6.84972 41.4184 6.66248C41.2484 6.47525 41.0068 6.32934 40.7242 6.2432C40.4415 6.15707 40.1305 6.13458 39.8305 6.17859C39.5305 6.2226 39.2549 6.33112 39.0387 6.49043C38.8225 6.64974 38.6753 6.85268 38.6158 7.07358C38.5563 7.29448 38.5871 7.52341 38.7043 7.73141C38.8216 7.93941 39.02 8.11713 39.2745 8.2421C39.529 8.36707 39.8281 8.43367 40.1341 8.43347C40.5439 8.43294 40.9366 8.3128 41.2263 8.09939C41.5159 7.88598 41.6788 7.59673 41.6791 7.29506ZM40.7237 7.29506C40.7237 7.38115 40.689 7.46531 40.624 7.53687C40.559 7.60844 40.4666 7.66421 40.3585 7.69711C40.2505 7.73 40.1316 7.73856 40.0169 7.72169C39.9022 7.70482 39.7969 7.66329 39.7143 7.60234C39.6317 7.5414 39.5755 7.46378 39.5529 7.37932C39.5302 7.29486 39.5421 7.20735 39.5871 7.12787C39.632 7.04839 39.708 6.98051 39.8053 6.93282C39.9027 6.88514 40.0171 6.85979 40.1341 6.85999C40.2906 6.86025 40.4405 6.90621 40.5511 6.98777C40.6616 7.06933 40.7237 7.17984 40.7237 7.29506Z" fill="#F1C751" stroke="#F1C751" stroke-width="0.7"/>
<path d="M32.4304 19.695C34.5297 17.6513 36.8214 14.5114 35.7581 11.1655C34.8764 8.36816 31.8176 5.98784 26.6705 4.08981C26.5319 4.03896 26.3809 4.00902 26.2264 4.00174C26.0719 3.99447 25.9169 4.01001 25.7707 4.04746C25.6244 4.0849 25.4898 4.1435 25.3748 4.21979C25.2598 4.29608 25.1666 4.38854 25.1008 4.49172C23.5994 6.84291 22.2754 9.16696 22.6439 11.7442C23.0616 14.6963 25.685 17.4092 30.6642 20.0387C30.7589 20.0886 30.8634 20.1275 30.9741 20.1542C30.8075 22.0211 30.3066 23.6187 29.5068 24.8144C29.479 24.8558 29.4625 24.9009 29.4584 24.947C29.4542 24.9931 29.4625 25.0394 29.4826 25.0831C29.5028 25.1269 29.5344 25.1673 29.5758 25.2021C29.6172 25.2368 29.6675 25.2652 29.7238 25.2856C29.7898 25.3092 29.862 25.3216 29.9354 25.3218C30.0245 25.3217 30.1118 25.3034 30.1875 25.2687C30.2632 25.2341 30.3243 25.1847 30.3639 25.1259C31.2361 23.8197 31.7753 22.0884 31.9404 20.0749C32.0626 20.021 32.17 19.9508 32.2571 19.8679C32.3144 19.8136 32.3745 19.7563 32.4345 19.6971L32.4304 19.695ZM31.92 17.1911C31.7057 14.7505 31.0014 12.3391 29.9558 10.5857C29.9314 10.5426 29.8955 10.5035 29.8504 10.4707C29.8052 10.4379 29.7516 10.4121 29.6927 10.3947C29.6338 10.3773 29.5708 10.3687 29.5073 10.3695C29.4439 10.3702 29.3812 10.3803 29.3231 10.399C29.265 10.4178 29.2125 10.4449 29.1688 10.4787C29.1251 10.5126 29.0909 10.5525 29.0684 10.5961C29.0458 10.6398 29.0353 10.6863 29.0375 10.733C29.0396 10.7797 29.0544 10.8256 29.0809 10.8681C30.2083 12.7611 30.9222 15.4559 31.0218 18.1025C27.256 15.9563 25.266 13.8141 24.9479 11.5654C24.6845 9.69849 25.5608 7.87381 26.6909 6.02803C30.5496 7.60252 32.8399 9.45835 33.5019 11.5543C34.1434 13.5779 33.1948 15.5785 31.92 17.1911Z" fill="#F1C751" stroke="#F1C751" stroke-width="0.7"/>
</svg>
