<svg width="130" height="100" viewBox="0 0 130 100" fill="none" xmlns="http://www.w3.org/2000/svg">
<rect width="130" height="100" fill="#F1C751"/>
<path d="M37 55.3879C37 66.7529 49.5573 75.9999 65 75.9999C68.6777 76.0018 72.3199 75.4699 75.7181 74.4347C79.1164 73.3995 82.204 71.8813 84.8046 69.9669C87.4051 68.0525 89.4675 65.7796 90.8737 63.278C92.28 60.7764 93.0025 58.0952 93 55.3879C92.9996 55.1614 92.8773 54.9444 92.6598 54.7843C92.4423 54.6241 92.1474 54.5341 91.8398 54.5338H38.1602C37.8526 54.5341 37.5577 54.6241 37.3402 54.7843C37.1227 54.9444 37.0004 55.1614 37 55.3879ZM90.6537 56.2419C90.5757 57.5237 90.321 58.7962 89.8934 60.04H40.1093C39.6793 58.7965 39.4236 57.5238 39.3463 56.2419H90.6537ZM40.37 60.7434H89.6314C88.0614 64.6558 84.8141 68.0894 80.3747 70.5313C75.9353 72.9732 70.5418 74.2924 65 74.2918C53.3654 74.2918 43.5148 68.5666 40.37 60.7434Z" fill="white" stroke="white" stroke-width="0.7"/>
<path d="M73.0721 70.5038C75.6904 69.6727 78.0179 68.4145 79.879 66.8243C79.9617 66.7536 80.0792 66.7099 80.2057 66.7029C80.3321 66.696 80.4572 66.7263 80.5533 66.7872C80.6494 66.8481 80.7087 66.9346 80.7182 67.0276C80.7276 67.1207 80.6865 67.2128 80.6038 67.2835C78.6451 68.9548 76.1969 70.2771 73.4434 71.1509C73.3838 71.1695 73.3198 71.179 73.255 71.1791C73.1448 71.1792 73.0379 71.1514 72.9524 71.1002C72.8669 71.049 72.8081 70.9776 72.786 70.8981C72.7638 70.8187 72.7796 70.736 72.8308 70.6641C72.8819 70.5923 72.9653 70.5356 73.0667 70.5038H73.0721Z" fill="white" stroke="white" stroke-width="0.7"/>
<path d="M88.6514 36.068C90.8967 34.3227 90.322 31.7475 90.2961 31.647C90.2611 31.4983 90.1732 31.3591 90.0413 31.2435C89.9094 31.1279 89.7383 31.0401 89.5454 30.9891C89.3524 30.938 89.1446 30.9255 88.9429 30.9528C88.7413 30.9802 88.5531 31.0463 88.3975 31.1446L83.3036 34.3609L84.8473 28.7261C84.8885 28.5758 84.874 28.4201 84.8052 28.2753C84.7365 28.1306 84.616 28.0021 84.4566 27.9035C84.2971 27.8048 84.1046 27.7396 83.899 27.7146C83.6935 27.6896 83.4827 27.7058 83.2886 27.7615C83.1357 27.8047 79.5173 28.8668 78.5114 31.4079C78.05 32.5674 78.2083 33.8133 78.9782 35.1255C77.9841 35.0109 76.9676 35.0656 76.0067 35.2853C74.332 35.6872 73.0489 36.6156 72.1945 38.0414C71.9348 38.4879 71.7137 38.946 71.5325 39.4129C71.5325 39.423 71.5243 39.434 71.5202 39.4441C70.244 42.6534 69.5097 48.035 69.6489 50.8644C69.6691 51.3297 69.868 51.7812 70.2227 52.1666C70.5773 52.552 71.0732 52.8554 71.6526 53.0418C72.0824 53.1822 72.5473 53.2551 73.0176 53.2558C73.8128 53.2552 74.5817 53.0461 75.1864 52.666C76.9485 51.5668 79.3672 49.719 81.5005 47.843C83.1535 46.3881 84.5116 45.0297 85.4274 43.9144C85.7683 43.507 86.0738 43.0842 86.3419 42.6483C87.1977 41.2236 87.2646 39.9013 86.5412 38.7186C86.2353 38.2273 85.8139 37.7797 85.2964 37.3964C86.6736 37.1753 87.7956 36.7332 88.6514 36.068ZM80.9232 37.3742L80.9587 37.3873L80.9996 37.4024L81.0365 37.4154H81.0474L81.0733 37.4225L81.1197 37.4355L81.1443 37.4426C81.1907 37.4536 83.6012 38.0515 84.4324 39.427C84.8746 40.1575 84.8064 40.9854 84.2222 41.9581C84.0528 42.2332 83.8638 42.5015 83.6557 42.7619L81.7244 42.0033C81.6689 41.9799 81.6077 41.9649 81.5442 41.9593C81.4808 41.9537 81.4165 41.9575 81.3551 41.9704C81.2936 41.9834 81.2364 42.0054 81.1867 42.0349C81.137 42.0645 81.0959 42.1011 81.0657 42.1426C81.0356 42.1841 81.0171 42.2296 81.0112 42.2764C81.0054 42.3233 81.0124 42.3705 81.0318 42.4153C81.0513 42.4601 81.0827 42.5016 81.1243 42.5373C81.1659 42.573 81.2168 42.6022 81.274 42.6232L83.1589 43.3637C82.1434 44.5052 81.0339 45.5997 79.8367 46.6413L76.1227 45.3823C76.0076 45.3433 75.8762 45.3395 75.7573 45.3718C75.6384 45.4042 75.5418 45.4699 75.4887 45.5547C75.4357 45.6394 75.4306 45.7362 75.4745 45.8237C75.5184 45.9112 75.6077 45.9823 75.7228 46.0214L79.1979 47.205C77.287 48.8498 75.2151 50.4143 73.6891 51.3658C73.5394 51.4596 73.3568 51.5204 73.1623 51.5413C72.9677 51.5622 72.7692 51.5422 72.5893 51.4838C72.4095 51.4254 72.2556 51.3308 72.1455 51.2109C72.0353 51.0911 71.9733 50.9508 71.9666 50.8061C71.8396 48.2349 72.4675 43.4582 73.5785 40.3725L77.2843 41.5973C77.3456 41.6179 77.4121 41.6285 77.4795 41.6285C77.5887 41.6285 77.6946 41.6009 77.7796 41.5504C77.8646 41.4999 77.9235 41.4294 77.9465 41.3508C77.9695 41.2722 77.9552 41.1902 77.906 41.1184C77.8567 41.0466 77.7756 40.9894 77.676 40.9563L73.8433 39.6893C73.9763 39.3663 74.1335 39.0489 74.3142 38.7387C74.8984 37.7661 75.6791 37.1713 76.7138 36.9201C78.6656 36.4408 80.9 37.3582 80.9232 37.3692V37.3742ZM82.026 30.39L80.975 34.2223C80.541 33.3762 80.4577 32.6005 80.7307 31.9022C80.9743 31.3216 81.421 30.7984 82.026 30.385V30.39ZM87.8324 33.754C87.6681 34.1823 87.3678 34.5756 86.9561 34.9015C86.4102 35.3255 85.649 35.6072 84.6726 35.7465L87.8324 33.754Z" fill="white" stroke="white" stroke-width="0.7"/>
<path d="M58.0089 40.2328C56.2945 37.118 52.4045 35.0673 48.4394 35.0673H48.3289C48.3166 35.0432 48.3029 35.018 48.2893 34.9939C47.5099 33.5902 45.1568 32.9633 43.0343 33.5963C42.0573 33.8799 41.2506 34.4117 40.7604 35.0954C40.5153 35.4298 40.3727 35.7997 40.3428 36.179C40.3128 36.5583 40.3962 36.9378 40.587 37.2909C40.7459 37.5809 40.9774 37.8464 41.2695 38.0736C39.5647 40.1344 39.3204 42.9136 40.6853 45.4014C42.401 48.5163 46.2378 50.563 50.2234 50.568C50.843 51.3186 52.0073 51.7537 53.2658 51.7537C53.7994 51.753 54.3278 51.6762 54.8218 51.5276C56.7709 50.9468 57.7768 49.4175 57.0643 48.1274C57.0439 48.0922 57.0234 48.0571 57.0016 48.0219C59.0926 45.9249 59.5021 42.9447 58.0089 40.2328ZM54.6989 47.3989C54.4996 47.5601 54.3918 47.7714 54.3976 47.9893C54.4035 48.2073 54.5225 48.4152 54.7303 48.5705C54.8079 48.628 54.8692 48.6963 54.9105 48.7715C55.1384 49.1844 54.6976 49.723 53.9551 49.9471C53.2125 50.1711 52.3786 50.0104 52.1506 49.5964C52.1353 49.5652 52.123 49.5333 52.1138 49.5009C52.0518 49.2972 51.8904 49.1172 51.6602 48.9952C51.43 48.8732 51.1471 48.8175 50.8649 48.8388C47.5891 49.0829 44.2955 47.406 42.8405 44.7624C41.6121 42.5358 41.9833 40.048 43.7809 38.4252C43.8926 38.3245 43.9716 38.2062 44.0118 38.0796C44.052 37.9529 44.0523 37.8212 44.0128 37.6944C43.9733 37.5676 43.895 37.4492 43.7839 37.3481C43.6727 37.247 43.5317 37.1659 43.3715 37.111C43.0902 37.022 42.8657 36.8574 42.7436 36.6508C42.6826 36.5252 42.6587 36.3915 42.6735 36.2586C42.6883 36.1257 42.7415 35.9967 42.8296 35.8801C43.0644 35.5575 43.4491 35.3079 43.9133 35.1768C44.8333 34.9015 45.8543 35.1105 46.1422 35.632C46.1969 35.7349 46.2225 35.845 46.2173 35.9555C46.2128 36.0802 46.2455 36.2041 46.3131 36.3185C46.3807 36.4329 46.4816 36.535 46.6086 36.6176C46.7356 36.7002 46.8857 36.7612 47.0483 36.7965C47.2108 36.8318 47.3819 36.8403 47.5495 36.8216C47.8512 36.7879 48.156 36.7711 48.4613 36.7714C51.4941 36.7714 54.5065 38.4031 55.8659 40.8709C57.149 43.218 56.6931 45.7792 54.6989 47.3989Z" fill="white" stroke="white" stroke-width="0.7"/>
<path d="M53.2426 46.2836C53.1773 46.3077 53.1053 46.32 53.0324 46.3198C52.9247 46.3194 52.8203 46.2923 52.7362 46.2428C52.6521 46.1933 52.5932 46.1243 52.569 46.0471C52.5448 45.9699 52.5568 45.8889 52.603 45.8173C52.6492 45.7457 52.7269 45.6876 52.8235 45.6526C53.4694 45.4179 53.9625 45.0042 54.1946 44.5022C54.4267 44.0002 54.3788 43.4509 54.0615 42.9749C54.0082 42.8913 54.0017 42.7956 54.0434 42.7085C54.0851 42.6214 54.1716 42.5499 54.2844 42.5094C54.3971 42.4688 54.527 42.4626 54.6459 42.492C54.7649 42.5214 54.8633 42.584 54.92 42.6664C55.1319 42.9855 55.2564 43.3322 55.2862 43.6868C55.316 44.0413 55.2507 44.3966 55.0939 44.7325C54.9371 45.0685 54.6919 45.3783 54.3724 45.6445C54.0529 45.9106 53.6652 46.1278 53.2316 46.2836H53.2426Z" fill="white" stroke="white" stroke-width="0.7"/>
<path d="M63.9067 51.5989C63.9064 51.9199 64.0355 52.2338 64.2776 52.5008C64.5197 52.7678 64.864 52.976 65.2668 53.0989C65.6697 53.2219 66.113 53.2541 66.5407 53.1915C66.9685 53.1289 67.3614 52.9744 67.6697 52.7474C67.9781 52.5204 68.1881 52.2311 68.2731 51.9163C68.3581 51.6014 68.3143 51.275 68.1473 50.9785C67.9803 50.6819 67.6976 50.4285 67.3348 50.2503C66.9721 50.072 66.5458 49.977 66.1097 49.9772C65.5257 49.978 64.966 50.1491 64.5531 50.4531C64.1402 50.757 63.9078 51.1691 63.9067 51.5989ZM64.8621 51.5989C64.8621 51.417 64.9354 51.2393 65.0727 51.088C65.21 50.9368 65.4051 50.819 65.6334 50.7494C65.8617 50.6799 66.1129 50.6617 66.3552 50.6973C66.5975 50.7328 66.82 50.8205 66.9946 50.9492C67.1692 51.0779 67.2881 51.2418 67.3361 51.4202C67.3841 51.5986 67.3592 51.7835 67.2645 51.9514C67.1697 52.1194 67.0094 52.2629 66.8039 52.3638C66.5983 52.4647 66.3567 52.5185 66.1097 52.5183C65.7787 52.518 65.4614 52.421 65.2274 52.2487C64.9935 52.0763 64.8621 51.8426 64.8621 51.5989Z" fill="white" stroke="white" stroke-width="0.7"/>
<path d="M55.0006 30.9276C55.0006 30.5529 54.8497 30.1866 54.5669 29.875C54.2842 29.5634 53.8823 29.3205 53.4121 29.177C52.9419 29.0335 52.4244 28.9959 51.9251 29.0688C51.4259 29.1418 50.9672 29.3221 50.6071 29.5869C50.2469 29.8517 50.0015 30.1892 49.9019 30.5566C49.8023 30.9241 49.8529 31.3051 50.0473 31.6514C50.2417 31.9977 50.5712 32.2938 50.9942 32.5022C51.4172 32.7107 51.9146 32.8222 52.4236 32.8226C53.1066 32.8226 53.7617 32.623 54.2449 32.2677C54.7281 31.9124 54.9999 31.4304 55.0006 30.9276ZM54.0452 30.9276C54.0454 31.1632 53.9508 31.3936 53.7732 31.5897C53.5956 31.7858 53.343 31.9387 53.0474 32.0291C52.7518 32.1195 52.4264 32.1433 52.1124 32.0976C51.7984 32.0519 51.5098 31.9387 51.2831 31.7723C51.0565 31.6059 50.902 31.3937 50.8391 31.1627C50.7762 30.9316 50.8078 30.692 50.9299 30.4742C51.0519 30.2563 51.259 30.07 51.5249 29.9388C51.7908 29.8076 52.1035 29.7373 52.4236 29.7369C52.8531 29.7366 53.2651 29.8619 53.5692 30.0852C53.8732 30.3084 54.0444 30.6114 54.0452 30.9276Z" fill="white" stroke="white" stroke-width="0.7"/>
<path d="M92.1851 46.6082C92.1854 46.2038 92.0227 45.8084 91.7176 45.4722C91.4125 45.1359 90.9788 44.8738 90.4713 44.719C89.9638 44.5643 89.4053 44.5238 88.8666 44.6028C88.3278 44.6818 87.833 44.8767 87.4448 45.1628C87.0566 45.4488 86.7923 45.8133 86.6856 46.2099C86.5788 46.6066 86.6343 47.0177 86.845 47.3911C87.0557 47.7646 87.4122 48.0836 87.8693 48.3079C88.3264 48.5321 88.8637 48.6515 89.413 48.6509C90.1481 48.6496 90.8526 48.4339 91.3722 48.051C91.8917 47.6681 92.184 47.1493 92.1851 46.6082ZM91.2297 46.6082C91.2297 46.8734 91.1228 47.1327 90.9225 47.3532C90.7223 47.5736 90.4377 47.7454 90.1047 47.8468C89.7718 47.9482 89.4055 47.9745 89.0522 47.9226C88.6988 47.8706 88.3744 47.7426 88.1199 47.5549C87.8654 47.3671 87.6924 47.128 87.6226 46.8678C87.5528 46.6076 87.5894 46.338 87.7279 46.0931C87.8663 45.8483 88.1003 45.6391 88.4003 45.4922C88.7002 45.3453 89.0527 45.2672 89.413 45.2678C89.8951 45.2689 90.3569 45.4105 90.6974 45.6617C91.0379 45.913 91.2293 46.2533 91.2297 46.6082Z" fill="white" stroke="white" stroke-width="0.7"/>
<path d="M40.4751 50.9006C40.4748 51.1258 40.5653 51.346 40.7351 51.5333C40.9048 51.7207 41.1463 51.8667 41.4288 51.9531C41.7114 52.0394 42.0223 52.0621 42.3224 52.0183C42.6225 51.9744 42.8982 51.8661 43.1146 51.7069C43.331 51.5478 43.4784 51.3449 43.5382 51.1241C43.598 50.9032 43.5674 50.6743 43.4504 50.4662C43.3334 50.2581 43.1352 50.0802 42.8809 49.9551C42.6265 49.83 42.3275 49.7632 42.0216 49.7632C41.6118 49.7634 41.2188 49.8833 40.9289 50.0966C40.639 50.3098 40.4758 50.5989 40.4751 50.9006ZM41.4305 50.9006C41.4305 50.8145 41.4652 50.7304 41.5301 50.6589C41.5951 50.5873 41.6874 50.5316 41.7954 50.4986C41.9034 50.4657 42.0222 50.4571 42.1369 50.4739C42.2515 50.4907 42.3568 50.5321 42.4395 50.593C42.5221 50.6538 42.5784 50.7313 42.6012 50.8157C42.624 50.9001 42.6123 50.9876 42.5676 51.0671C42.5228 51.1466 42.4471 51.2145 42.3499 51.2623C42.2527 51.3101 42.1384 51.3357 42.0216 51.3357C41.8648 51.3357 41.7145 51.2898 41.6036 51.2082C41.4928 51.1266 41.4305 51.016 41.4305 50.9006Z" fill="white" stroke="white" stroke-width="0.7"/>
<path d="M75.6792 28.2951C75.6792 28.0699 75.5884 27.8497 75.4184 27.6625C75.2484 27.4753 75.0068 27.3293 74.7242 27.2432C74.4415 27.1571 74.1305 27.1346 73.8305 27.1786C73.5305 27.2226 73.2549 27.3311 73.0387 27.4904C72.8225 27.6497 72.6753 27.8527 72.6158 28.0736C72.5563 28.2945 72.5871 28.5234 72.7044 28.7314C72.8216 28.9394 73.02 29.1171 73.2745 29.2421C73.529 29.3671 73.8281 29.4337 74.1341 29.4335C74.5439 29.4329 74.9366 29.3128 75.2263 29.0994C75.5159 28.886 75.6788 28.5967 75.6792 28.2951ZM74.7237 28.2951C74.7237 28.3812 74.689 28.4653 74.624 28.5369C74.559 28.6084 74.4666 28.6642 74.3586 28.6971C74.2505 28.73 74.1316 28.7386 74.0169 28.7217C73.9022 28.7048 73.7969 28.6633 73.7143 28.6023C73.6317 28.5414 73.5755 28.4638 73.5529 28.3793C73.5302 28.2949 73.5421 28.2074 73.5871 28.1279C73.632 28.0484 73.708 27.9805 73.8053 27.9328C73.9027 27.8851 74.0171 27.8598 74.1341 27.86C74.2906 27.8603 74.4405 27.9062 74.5511 27.9878C74.6616 28.0693 74.7237 28.1798 74.7237 28.2951Z" fill="white" stroke="white" stroke-width="0.7"/>
<path d="M66.4304 40.695C68.5297 38.6513 70.8214 35.5114 69.7581 32.1655C68.8764 29.3682 65.8176 26.9878 60.6705 25.0898C60.5319 25.039 60.3809 25.009 60.2264 25.0017C60.0719 24.9945 59.9169 25.01 59.7707 25.0475C59.6244 25.0849 59.4898 25.1435 59.3748 25.2198C59.2598 25.2961 59.1666 25.3885 59.1008 25.4917C57.5994 27.8429 56.2754 30.167 56.644 32.7442C57.0616 35.6963 59.685 38.4092 64.6642 41.0387C64.7589 41.0886 64.8634 41.1275 64.9741 41.1542C64.8076 43.0211 64.3066 44.6187 63.5068 45.8144C63.479 45.8558 63.4625 45.9009 63.4584 45.947C63.4542 45.9931 63.4625 46.0394 63.4826 46.0831C63.5028 46.1269 63.5345 46.1673 63.5758 46.2021C63.6172 46.2368 63.6675 46.2652 63.7238 46.2856C63.7898 46.3092 63.8621 46.3216 63.9354 46.3218C64.0245 46.3217 64.1118 46.3034 64.1875 46.2687C64.2632 46.2341 64.3243 46.1847 64.364 46.1259C65.2361 44.8197 65.7753 43.0884 65.9404 41.0749C66.0626 41.021 66.17 40.9508 66.2571 40.8679C66.3144 40.8136 66.3745 40.7563 66.4345 40.6971L66.4304 40.695ZM65.92 38.1911C65.7057 35.7505 65.0014 33.3391 63.9558 31.5857C63.9314 31.5426 63.8956 31.5035 63.8504 31.4707C63.8052 31.4379 63.7516 31.4121 63.6927 31.3947C63.6338 31.3773 63.5708 31.3687 63.5073 31.3695C63.4439 31.3702 63.3813 31.3803 63.3231 31.399C63.265 31.4178 63.2126 31.4449 63.1688 31.4787C63.1251 31.5126 63.0909 31.5525 63.0684 31.5961C63.0458 31.6398 63.0353 31.6863 63.0375 31.733C63.0396 31.7797 63.0544 31.8256 63.0809 31.8681C64.2084 33.7611 64.9222 36.4559 65.0218 39.1025C61.256 36.9563 59.266 34.8141 58.9479 32.5654C58.6845 30.6985 59.5608 28.8738 60.691 27.028C64.5496 28.6025 66.8399 30.4583 67.5019 32.5543C68.1434 34.5779 67.1948 36.5785 65.92 38.1911Z" fill="white" stroke="white" stroke-width="0.7"/>
</svg>
