<svg width="52" height="52" viewBox="0 0 52 52" fill="none" xmlns="http://www.w3.org/2000/svg">
<path d="M42.4565 44.3362L42.6814 44.6062C38.2574 48.5795 32.4045 51 26 51C19.5955 51 13.7532 48.5911 9.3292 44.6293L9.57709 44.3362C9.57709 44.3362 12.4925 42.0176 15.9258 41.1624C19.3591 40.3072 20.912 37.8982 20.912 37.8982V33.6885C20.912 33.6885 18.4127 30.3456 18.7624 28.0269C18.7624 28.0269 15.6673 25.9668 17.8169 22.962C17.8169 22.962 12.8413 8.67836 25.4599 8.53228C28.6569 8.49864 30.2434 10.9297 30.2434 10.9297C38.7868 10.0745 34.2168 22.962 34.2168 22.962C36.3663 25.9677 33.2712 28.0269 33.2712 28.0269C33.62 30.3456 31.1216 33.6885 31.1216 33.6885V37.8982C31.1216 37.8982 32.6754 40.3072 36.1078 41.1624C39.5411 42.0176 42.4565 44.3362 42.4565 44.3362Z" fill="#F1C751"/>
<path d="M42.4565 44.3362C42.4565 44.3362 39.5411 42.0176 36.1078 41.1624C32.6745 40.3072 31.1216 37.8982 31.1216 37.8982V33.6885C31.1216 33.6885 33.6209 30.3456 33.2712 28.0269C33.2712 28.0269 36.3663 25.9668 34.2168 22.962C34.2168 22.962 38.7868 10.0736 30.2434 10.9297C30.2434 10.9297 28.656 8.49864 25.4599 8.53228C12.8413 8.67836 17.8169 22.962 17.8169 22.962C15.6673 25.9677 18.7624 28.0269 18.7624 28.0269C18.4136 30.3456 20.912 33.6885 20.912 33.6885V37.8982C20.912 37.8982 19.3582 40.3072 15.9258 41.1624C12.4925 42.0176 9.5771 44.3362 9.5771 44.3362" fill="#F1C751" fill-opacity="0.2"/>
<path d="M42.4565 44.3362C42.4565 44.3362 39.5411 42.0176 36.1078 41.1624C32.6745 40.3072 31.1216 37.8982 31.1216 37.8982V33.6885C31.1216 33.6885 33.6209 30.3456 33.2712 28.0269C33.2712 28.0269 36.3663 25.9668 34.2168 22.962C34.2168 22.962 38.7868 10.0736 30.2434 10.9297C30.2434 10.9297 28.656 8.49864 25.4599 8.53228C12.8413 8.67836 17.8169 22.962 17.8169 22.962C15.6673 25.9677 18.7624 28.0269 18.7624 28.0269C18.4136 30.3456 20.912 33.6885 20.912 33.6885V37.8982C20.912 37.8982 19.3582 40.3072 15.9258 41.1624C12.4925 42.0176 9.5771 44.3362 9.5771 44.3362" stroke="#F1C751" stroke-miterlimit="10" stroke-linecap="round" stroke-linejoin="round"/>
<path d="M9.3292 44.6284C4.21907 40.0477 1 33.3955 1 25.9995C1 12.1886 12.1888 1 26 1C39.7997 1 51 12.1886 51 25.9995C51 33.3946 47.7916 40.0353 42.6814 44.6053C38.2574 48.5786 32.4045 50.9991 26 50.9991C19.5955 50.9991 13.7532 48.591 9.3292 44.6284Z" fill="#F1C751" fill-opacity="0.2" stroke="#F1C751" stroke-width="1.5" stroke-miterlimit="10"/>
</svg>
